<?xml version="1.0" encoding="UTF-8"?>
<svg width="24" height="24" fill="none" version="1.1" viewBox="0 0 24 24" xmlns="http://www.w3.org/2000/svg" xmlns:cc="http://creativecommons.org/ns#" xmlns:dc="http://purl.org/dc/elements/1.1/" xmlns:rdf="http://www.w3.org/1999/02/22-rdf-syntax-ns#">
 <metadata>
  <rdf:RDF>
   <cc:Work rdf:about="">
    <dc:format>image/svg+xml</dc:format>
    <dc:type rdf:resource="http://purl.org/dc/dcmitype/StillImage"/>
    <dc:title/>
   </cc:Work>
  </rdf:RDF>
 </metadata>
 <path d="m15.5 14h-0.79l-0.28-0.27c1.2-1.4 1.82-3.31 1.48-5.34-0.47-2.78-2.79-5-5.59-5.34-4.23-0.52-7.79 3.04-7.27 7.27 0.34 2.8 2.56 5.12 5.34 5.59 2.03 0.34 3.94-0.28 5.34-1.48l0.27 0.28v0.79l4.25 4.25c0.41 0.41 1.08 0.41 1.49 0s0.41-1.08 0-1.49zm-6 0c-2.49 0-4.5-2.01-4.5-4.5 0-2.49 2.01-4.5 4.5-4.5 2.49 0 4.5 2.01 4.5 4.5 0 2.49-2.01 4.5-4.5 4.5z" clip-rule="evenodd" fill="#141415" fill-rule="evenodd"/>
</svg>
